# xmcd
#
# Track frame offsets:
#	150
#	9850
#	19278
#	32188
#	42375
#	55038
#	64210
#	75390
#	86748
#	96373
#	108723
#	120748
#	131243
#	141680
#
# Disc length: 2031
#
# Revision: 3
# Processed by: cddbd v1.5.1PL0 Copyright (c) Steve Scherf et al.
# Submitted via: CDValet v3.31 - Copyright (c) 1997 Greg Leichner
# Normalized: r1:DSETVAR1,TDELIM( - ),TSWAP
#
DISCID=c707ed0e
DTITLE=Various Artist - *World's Best Country Music*
DYEAR=1900
DGENRE=
TTITLE0=Dave Dudley - Cowboy Boots
TTITLE1=Ned Miller - Another Fool Like Me
TTITLE2=Patti Page - Gentle On My Mind
TTITLE3=Hank Locklin - Let Me Be The One
TTITLE4=Patsy Cline - Just A Closer Walk With Thee
TTITLE5=James O'Gwynn - House Of Blue Lovers
TTITLE6=Johnny Cash - Oh, Lonesome Me
TTITLE7=Webb Pierce - Slowly
TTITLE8=Jeannie C. Riley - The Girl Most Likely
TTITLE9=Randy Travis - I'll Take Any Willing Woman
TTITLE10=Jimmy C. Newman - Cry, Cry, Darlin'
TTITLE11=Sleepy La Beef - Blackland Farmer
TTITLE12=Charlie Walker - Wild As A Wildcat
TTITLE13=Jerry Lee Lewis - Will The Circle Be Unbroken
EXTD=
EXTT0=
EXTT1=
EXTT2=
EXTT3=
EXTT4=
EXTT5=
EXTT6=
EXTT7=
EXTT8=
EXTT9=
EXTT10=
EXTT11=
EXTT12=
EXTT13=
PLAYORDER=
